<?xml version="1.0" encoding="UTF-8"?>
<svg id="a" data-name="Layer 1" xmlns="http://www.w3.org/2000/svg" viewBox="0 0 200 199.85">
  <g>
    <g id="b" data-name="&amp;lt;Radial Repeat&amp;gt;">
      <g>
        <path d="M106.74,102.83c-1.25,0-5.71-1.24-6.22-1.39l-.6-.17.37-.5c.35-.47,3.43-4.6,4.52-5.18l.19-.1c.72-.38,2.06-1.1,3.22-1.41,1.05-.28,1.67.09,2.21.42.26.16.5.3.79.4,1.03.32,2.16.76,2.46,1.88.28,1.02-.18,2.34-1.16,3.35-.21.22-.35.48-.49.76-.28.56-.6,1.18-1.57,1.45-1.33.36-2.74.45-3.68.49-.02,0-.04,0-.06,0ZM101.35,100.79c1.65.45,4.67,1.22,5.42,1.19.9-.03,2.23-.12,3.48-.46.61-.17.79-.52,1.03-1.01.16-.31.33-.66.64-.97.77-.78,1.15-1.8.95-2.53-.17-.63-.85-.96-1.89-1.29-.39-.12-.71-.31-.98-.48-.49-.3-.85-.52-1.54-.33-1.08.29-2.41,1-3.05,1.34l-.19.1c-.63.33-2.56,2.72-3.86,4.43Z" style="fill: #7e1d3c; stroke-width: 0px;"/>
        <path d="M106.74,102.96c-1.3,0-6.05-1.34-6.26-1.39l-.77-.22.48-.64c.35-.47,3.44-4.62,4.57-5.22l.19-.1c.72-.38,2.06-1.1,3.25-1.42,1.11-.3,1.77.11,2.3.43.25.15.49.3.77.39,1.06.33,2.23.79,2.55,1.97.29,1.07-.18,2.43-1.19,3.47-.2.21-.33.46-.46.73-.28.55-.62,1.23-1.65,1.51-1.35.37-2.76.46-3.7.49-.02,0-.04,0-.07,0ZM100.13,101.21l.42.12c.2.06,4.92,1.38,6.19,1.38h.05c.93-.04,2.32-.12,3.65-.48.92-.25,1.21-.83,1.49-1.38.14-.29.28-.56.51-.79.95-.98,1.4-2.24,1.13-3.23-.29-1.06-1.38-1.48-2.38-1.8-.31-.1-.57-.26-.82-.41-.55-.33-1.11-.68-2.11-.41-1.16.32-2.48,1.02-3.2,1.4l-.19.1c-.88.46-3.23,3.45-4.48,5.14l-.26.35ZM106.72,102.11c-.93,0-4.36-.91-5.4-1.2l-.18-.05.11-.15c.31-.41,3.06-4.02,3.9-4.47l.19-.1c.64-.34,1.98-1.06,3.07-1.35.75-.2,1.14.04,1.64.34.27.16.57.35.95.47,1.08.34,1.79.69,1.98,1.38.21.77-.18,1.83-.98,2.65-.29.3-.46.64-.62.94-.25.5-.45.9-1.11,1.08-1.26.34-2.61.43-3.51.46-.02,0-.03,0-.05,0ZM101.56,100.72c2.09.56,4.46,1.14,5.16,1.14.02,0,.03,0,.05,0,.89-.03,2.22-.12,3.46-.45.55-.15.71-.47.96-.95.15-.3.34-.67.66-1,.74-.75,1.1-1.72.92-2.41-.16-.58-.81-.89-1.81-1.21-.41-.13-.73-.32-1.01-.49-.48-.3-.8-.49-1.44-.31-1.06.29-2.38.99-3.02,1.33l-.19.1c-.55.29-2.28,2.38-3.71,4.25Z" style="fill: #7e1d3c; stroke-width: 0px;"/>
      </g>
    </g>
    <g id="c" data-name="&amp;lt;Radial Repeat&amp;gt;">
      <g>
        <path d="M107.19,112.45c-.64,0-1.33-.16-1.98-.49-.27-.14-.57-.18-.87-.23-.61-.09-1.31-.2-1.86-1.05-.76-1.15-1.27-2.46-1.6-3.34-.4-1.09-.6-5.86-.62-6.4l-.02-.62.59.2c.55.19,5.44,1.84,6.32,2.7l.15.15c.59.57,1.68,1.62,2.34,2.63.59.91.43,1.61.28,2.23-.07.29-.13.57-.13.88.01,1.08-.06,2.29-1.03,2.92-.43.28-.97.42-1.56.42ZM101.13,101.53c.08,1.71.28,4.81.54,5.52.31.84.8,2.09,1.51,3.17.34.53.74.59,1.28.67.34.05.73.11,1.12.31.98.49,2.07.53,2.7.12.55-.36.65-1.11.64-2.2,0-.41.08-.77.15-1.08.13-.56.23-.97-.16-1.57-.61-.93-1.7-1.98-2.22-2.48l-.16-.15c-.51-.5-3.38-1.6-5.41-2.3Z" style="fill: #7e1d3c; stroke-width: 0px;"/>
        <path d="M107.19,112.57c-.67,0-1.38-.17-2.04-.5-.26-.13-.54-.17-.84-.22-.61-.09-1.37-.21-1.95-1.1-.76-1.16-1.29-2.48-1.61-3.37-.39-1.06-.59-5.55-.63-6.44l-.03-.8.76.25c.56.19,5.46,1.85,6.37,2.73l.15.15c.59.57,1.69,1.63,2.36,2.65.62.95.44,1.72.3,2.33-.07.3-.13.56-.13.85.01,1.11-.06,2.36-1.09,3.03-.44.29-1,.44-1.63.44ZM100.35,100.49l.02.44c.04.88.24,5.34.61,6.37.32.88.84,2.18,1.59,3.32.52.8,1.16.9,1.78.99.3.05.62.09.91.24,1.2.59,2.58.62,3.42.08.92-.6.98-1.77.97-2.82,0-.32.06-.59.13-.89.15-.65.31-1.29-.26-2.16-.66-1-1.74-2.05-2.32-2.61l-.15-.15c-.71-.69-4.28-2-6.28-2.67l-.42-.14ZM107.19,111.72c-.53,0-1.11-.14-1.67-.41-.38-.19-.75-.24-1.09-.29-.55-.09-.99-.15-1.37-.73-.72-1.09-1.21-2.35-1.52-3.2-.3-.82-.5-4.46-.55-5.56v-.18s.17.06.17.06c.49.17,4.77,1.67,5.46,2.33l.16.15c.53.51,1.62,1.56,2.24,2.5.42.65.32,1.09.18,1.66-.07.31-.16.65-.15,1.06.01,1.13-.1,1.91-.7,2.31-.3.2-.71.3-1.15.3ZM101.26,101.7c.11,2.2.3,4.69.53,5.3.31.84.79,2.07,1.5,3.14.31.48.66.54,1.19.62.35.05.75.12,1.16.32.95.47,1.98.52,2.57.13.5-.33.6-1.05.59-2.1,0-.43.09-.81.16-1.11.13-.55.22-.91-.15-1.47-.6-.92-1.68-1.96-2.2-2.46l-.16-.15c-.45-.43-2.97-1.44-5.19-2.21Z" style="fill: #7e1d3c; stroke-width: 0px;"/>
      </g>
    </g>
    <g id="d" data-name="&amp;lt;Radial Repeat&amp;gt;">
      <g>
        <path d="M94.06,112.48c-.47,0-.93-.12-1.34-.44-.83-.67-1.23-2-1.03-3.39.04-.3,0-.59-.05-.9-.1-.61-.21-1.31.42-2.1.87-1.08,1.95-1.97,2.69-2.55.91-.71,5.39-2.38,5.9-2.57l.58-.21v.62c-.01.58-.08,5.74-.62,6.85l-.09.19c-.36.73-1.02,2.09-1.78,3.04-.68.85-1.4.9-2.04.96-.3.02-.58.05-.88.15-.57.19-1.17.37-1.76.37ZM100.36,101.54c-1.6.61-4.48,1.75-5.08,2.22-.71.55-1.74,1.41-2.55,2.42-.39.49-.33.88-.24,1.42.06.34.12.73.06,1.16-.16,1.08.13,2.13.72,2.6.51.41,1.25.28,2.29-.07.39-.13.76-.16,1.08-.19.57-.05.99-.08,1.44-.64.7-.87,1.36-2.23,1.67-2.88l.1-.2c.31-.64.48-3.7.52-5.86Z" style="fill: #7e1d3c; stroke-width: 0px;"/>
        <path d="M94.06,112.6c-.56,0-1.02-.15-1.42-.47-.86-.69-1.28-2.07-1.08-3.5.04-.28,0-.56-.05-.86-.1-.62-.22-1.37.44-2.2.87-1.08,1.96-1.99,2.71-2.57.93-.73,5.42-2.4,5.93-2.59l.75-.28v.8c-.02.96-.09,5.8-.64,6.9l-.09.19c-.36.74-1.02,2.11-1.79,3.06-.71.89-1.5.95-2.12,1-.3.03-.57.05-.85.14-.58.2-1.2.38-1.8.38ZM101.1,100.49l-.41.15c-1.83.68-5.13,1.98-5.86,2.55-.74.58-1.81,1.47-2.67,2.53-.6.74-.49,1.38-.39,2,.05.32.1.62.05.94-.2,1.35.19,2.63.98,3.27.35.28.76.42,1.26.42.56,0,1.16-.17,1.72-.36.3-.1.59-.13.89-.15.66-.05,1.32-.11,1.97-.91.75-.93,1.41-2.29,1.76-3.01l.1-.19c.53-1.08.6-6.21.6-6.79v-.44ZM94.06,111.75c-.34,0-.63-.08-.88-.28-.62-.5-.93-1.59-.77-2.72.06-.42,0-.79-.05-1.12-.09-.56-.16-.99.27-1.52.82-1.02,1.86-1.88,2.57-2.44.71-.55,4.39-1.96,5.12-2.24l.17-.07v.18c-.01.51-.11,5.05-.54,5.91l-.1.2c-.32.65-.98,2.02-1.69,2.9-.48.6-.94.64-1.53.69-.32.03-.68.06-1.05.18-.6.2-1.1.33-1.53.33ZM100.23,101.72c-2.06.78-4.37,1.74-4.88,2.14-.7.55-1.72,1.4-2.53,2.4-.36.45-.3.79-.22,1.32.05.33.12.75.06,1.2-.15,1.04.12,2.04.67,2.49.47.38,1.18.25,2.17-.09.41-.14.78-.17,1.1-.19.57-.05.94-.08,1.36-.59.69-.86,1.35-2.21,1.66-2.85l.1-.2c.27-.56.45-3.27.5-5.62Z" style="fill: #7e1d3c; stroke-width: 0px;"/>
      </g>
    </g>
    <g id="e" data-name="&amp;lt;Radial Repeat&amp;gt;">
      <g>
        <path d="M94.49,102.99c-.09,0-.16,0-.23-.01l-.21-.03c-.81-.11-2.31-.32-3.44-.75-1.01-.39-1.29-1.05-1.54-1.64-.12-.28-.22-.54-.41-.79-.64-.87-1.3-1.89-.89-2.97.38-.99,1.52-1.79,2.91-2.03.3-.05.56-.19.84-.33.55-.28,1.18-.61,2.12-.25,1.29.49,2.48,1.24,3.26,1.77.96.65,3.93,4.39,4.27,4.81l.38.49-.59.19c-.53.17-4.96,1.54-6.47,1.54ZM92.84,94.89c-.33,0-.6.14-.93.31-.31.16-.66.34-1.09.41-1.08.18-1.98.78-2.25,1.49-.23.61.12,1.28.77,2.16.25.33.39.67.51.97.22.53.38.92,1.05,1.17,1.04.4,2.54.6,3.26.7l.21.03c.71.11,3.67-.69,5.73-1.32-1.07-1.34-3.05-3.72-3.69-4.15-.74-.5-1.87-1.22-3.09-1.68-.19-.07-.35-.1-.5-.1Z" style="fill: #7e1d3c; stroke-width: 0px;"/>
        <path d="M94.49,103.12c-.09,0-.18,0-.25-.01l-.21-.03c-.81-.11-2.32-.32-3.47-.76-1.06-.4-1.37-1.13-1.61-1.71-.11-.27-.22-.53-.4-.77-.66-.89-1.34-1.94-.9-3.09.39-1.03,1.57-1.86,3-2.1.29-.05.54-.18.81-.32.55-.28,1.23-.63,2.22-.25,1.31.5,2.5,1.25,3.29,1.78.95.64,3.75,4.14,4.3,4.84l.5.63-.76.24c-.83.26-5.02,1.55-6.51,1.55ZM92.83,94.16c-.49,0-.88.2-1.25.39-.28.14-.56.29-.88.34-1.34.23-2.45.99-2.81,1.95-.39,1.03.25,2.01.87,2.85.2.26.31.54.42.82.25.59.5,1.21,1.47,1.57,1.12.42,2.61.63,3.42.74l.21.03c.06,0,.13.01.21.01,1.49,0,5.93-1.38,6.44-1.54l.42-.13-.27-.34c-.33-.42-3.3-4.16-4.24-4.79-.77-.52-1.95-1.27-3.23-1.75-.28-.11-.54-.15-.76-.15ZM94.53,102.27c-.07,0-.12,0-.17-.01l-.21-.03c-.72-.1-2.23-.31-3.28-.71-.72-.27-.9-.7-1.12-1.24-.12-.29-.26-.62-.5-.95-.68-.91-1.04-1.61-.79-2.28.28-.75,1.23-1.38,2.35-1.57.41-.07.75-.24,1.04-.4.35-.18.64-.33,1-.33.17,0,.35.04.54.11,1.23.47,2.37,1.19,3.11,1.69.72.49,3.03,3.32,3.71,4.17l.12.14-.18.05c-.76.23-4.45,1.33-5.61,1.33ZM92.84,95.01c-.29,0-.54.13-.86.29-.33.17-.69.35-1.13.43-1.04.18-1.9.74-2.16,1.41-.21.56.13,1.2.76,2.04.26.34.4.69.53.99.22.52.36.87.98,1.1,1.03.39,2.52.6,3.23.7l.21.03c.63.09,3.17-.56,5.5-1.26-1.38-1.71-3-3.62-3.54-3.98-.74-.5-1.85-1.21-3.06-1.67-.17-.06-.31-.09-.46-.09Z" style="fill: #7e1d3c; stroke-width: 0px;"/>
      </g>
    </g>
    <g id="f" data-name="&amp;lt;Radial Repeat&amp;gt;">
      <g>
        <path d="M100.74,101.86l-.36-.5c-.34-.48-3.32-4.68-3.53-5.9l-.04-.21c-.14-.8-.41-2.29-.35-3.5.05-1.08.6-1.56,1.09-1.97.23-.2.44-.38.62-.63.63-.88,1.38-1.82,2.55-1.76,1.06.05,2.17.89,2.82,2.14.14.27.35.48.57.7.44.44.94.93.89,1.94-.07,1.39-.42,2.74-.67,3.65-.32,1.11-2.96,5.09-3.26,5.55l-.34.51ZM100.63,88.23c-.63,0-1.14.54-1.76,1.4-.24.34-.52.58-.76.79-.44.38-.75.65-.79,1.36-.05,1.11.21,2.6.34,3.31l.04.22c.12.7,1.79,3.28,3.02,5.04.94-1.44,2.6-4.05,2.81-4.79.24-.86.58-2.16.64-3.45.03-.63-.25-.91-.64-1.29-.25-.24-.52-.52-.73-.91-.51-.97-1.36-1.64-2.11-1.68-.02,0-.04,0-.05,0Z" style="fill: #7e1d3c; stroke-width: 0px;"/>
        <path d="M100.75,102.08l-.46-.65c-.34-.48-3.33-4.71-3.55-5.95l-.04-.21c-.14-.81-.41-2.3-.35-3.53.06-1.14.65-1.65,1.13-2.06.22-.19.43-.37.6-.61.63-.88,1.39-1.82,2.54-1.82.04,0,.08,0,.12,0,1.1.05,2.25.92,2.93,2.2.13.25.33.45.55.66.44.44.99.98.94,2.04-.07,1.4-.42,2.77-.68,3.67-.33,1.17-3.16,5.4-3.28,5.58l-.44.67ZM100.62,87.5c-1.03,0-1.72.84-2.34,1.71-.19.26-.41.45-.64.65-.49.42-.99.85-1.04,1.88-.06,1.2.21,2.68.35,3.47l.04.21c.17.97,2.28,4.13,3.51,5.85l.25.36.24-.36c.12-.18,2.92-4.38,3.24-5.51.25-.9.6-2.25.67-3.62.04-.95-.41-1.41-.86-1.85-.23-.23-.45-.44-.6-.73-.63-1.21-1.7-2.02-2.72-2.07-.04,0-.07,0-.1,0ZM100.72,100.58l-.11-.15c-.29-.42-2.88-4.15-3.04-5.09l-.04-.21c-.13-.72-.39-2.21-.34-3.34.04-.77.39-1.07.83-1.45.24-.2.51-.44.74-.76.64-.9,1.17-1.46,1.86-1.46h0s.04,0,.06,0c.8.04,1.69.74,2.21,1.75.19.37.46.64.7.88.4.4.71.71.68,1.39-.06,1.3-.4,2.61-.65,3.48-.24.84-2.22,3.9-2.82,4.82l-.1.16ZM100.63,88.35c-.58,0-1.06.52-1.66,1.35-.25.35-.55.6-.78.81-.43.37-.71.61-.75,1.28-.05,1.1.21,2.58.34,3.28l.04.22c.11.61,1.55,2.91,2.9,4.84,1.2-1.85,2.51-3.98,2.69-4.6.24-.86.57-2.15.64-3.43.03-.57-.22-.82-.6-1.2-.25-.25-.54-.54-.75-.94-.49-.93-1.3-1.58-2.01-1.61h-.05Z" style="fill: #7e1d3c; stroke-width: 0px;"/>
      </g>
    </g>
  </g>
  <g>
    <path d="M30.98,148.28c0-1.26,2.35-.68,2.86-2.35l5.18-17.42c.1-.37.27-.95.27-1.5,0-1.06-1.64-.68-1.64-1.64,0-.44.41-.72.85-.72.75,0,1.7.1,2.8.1s2.08-.1,2.8-.1c.44,0,.72.24.72.58,0,1.3-2.11.55-2.11,2.28,0,.55.24,1.3.55,2.35l3.85,13.06,6.89-13.06c.88-1.67,1.13-2.25,1.13-2.8,0-1.26-1.67-.75-1.67-1.74,0-.44.37-.68.82-.68.75,0,1.74.1,2.8.1s2.25-.1,2.97-.1c.41,0,.68.21.68.55,0,1.33-2.28.34-2.28,2.49v.82l.21,17.42c.03,1.53,2.18,1.09,2.18,2.18,0,.55-.51.75-1.02.75-.41,0-1.09-.1-2.46-.1-1.19,0-2.15.1-2.97.1-.55,0-.79-.21-.79-.58,0-1.26,2.42-.51,2.42-2.39v-.99l-.07-15.24-8.7,16.43c-.28.51-.61.65-1.02.65-.34,0-.72-.17-.85-.65l-4.84-16.4-4.53,15.54c-.17.58-.27.99-.27,1.19,0,.92,1.88.82,1.88,1.67,0,.48-.37.75-.99.75-.65,0-1.46-.1-2.49-.1s-1.81.1-2.46.1c-.3,0-.68-.17-.68-.58h0Z" style="fill: #7e1d3c; stroke-width: 0px;"/>
    <path d="M63.44,141.84c0-5.73,4.4-10.09,8.93-10.09,2.25,0,3.62,1.09,4.47,1.09s1.88-1.02,2.46-1.02c.37,0,.58.31.51.75l-1.67,11.83c-.07.48-.1.99-.1,1.19,0,.72.34,1.16.88,1.16.61,0,.92-.44,1.37-.44.3,0,.51.24.51.65,0,1.06-1.5,2.11-2.93,2.11-1.19,0-2.22-.75-2.22-2.28,0-.17,0-.31.03-.58-1.37,1.74-3.51,3-5.89,3-3.55,0-6.34-2.83-6.34-7.36h0ZM70.8,147.29c2.15,0,4.78-1.64,5.31-5.22.28-1.81.44-3.24.44-4.22,0-3.07-2.01-4.57-4.22-4.57-3.27,0-6.31,3.38-6.31,7.91,0,3.82,2.22,6.1,4.78,6.1h0Z" style="fill: #7e1d3c; stroke-width: 0px;"/>
    <path d="M95.24,146.3c0-.85.27-5.38.27-7.36,0-3.71-.88-4.98-2.69-4.98-1.97,0-4.53,1.6-5.25,5.66v-.03c-.41,2.86-.79,5.66-1.09,8.42-.1.79-.65.92-1.74.92-.44,0-.82-.1-.82-.61,0-.72,1.77-10.6,1.77-12.31,0-1.37-2.35-.58-2.35-1.74,0-.48.48-.68,2.35-1.53,1.39-.65,1.91-.79,2.22-.79.34,0,.61.34.61.68,0,.27-.03.51-.07.75-.07.61-.17,1.23-.28,1.84,1.33-2.01,3.31-3.41,5.52-3.41,1.95,0,4.26,1.09,4.26,5.38,0,1.57-.3,6.58-.3,7.91,0,1.43.34,1.7.95,1.7.75,0,1.09-.51,1.57-.51.28,0,.58.21.58.61,0,.92-1.53,2.08-3.07,2.08s-2.46-.99-2.46-2.69h.02Z" style="fill: #7e1d3c; stroke-width: 0px;"/>
    <path d="M102.46,141.8c0-5.69,4.47-10.06,9-10.06,2.49,0,4.26,1.09,5.29,2.46l.79-5.66c.07-.44.14-.92.14-1.23,0-1.37-2.59-.61-2.59-1.77,0-.48.51-.68,2.49-1.53,1.46-.65,1.91-.79,2.28-.79s.65.34.65.68c0,.27-.03.48-.07.75l-2.76,19.71c-.07.51-.1.99-.1,1.3,0,.65.34,1.09.88,1.09.61,0,.99-.44,1.37-.44.34,0,.55.24.55.65,0,1.06-1.5,2.11-2.97,2.11-1.19,0-2.25-.75-2.25-2.39,0-.14,0-.34.03-.51-1.43,1.81-3.65,3.04-6.27,3.04-3.62,0-6.45-2.83-6.45-7.4h0ZM109.93,147.29c2.32,0,5.22-1.67,5.73-5.35.21-1.43.41-2.59.41-3.24,0-2.8-1.43-5.42-4.6-5.42-3.34,0-6.41,3.38-6.41,7.91,0,3.85,2.28,6.1,4.87,6.1h0Z" style="fill: #7e1d3c; stroke-width: 0px;"/>
    <path d="M123.81,144.36c0-.24.07-1.02.21-1.95l.72-5.18c.07-.48.14-.99.14-1.23,0-1.37-2.28-.58-2.28-1.74,0-.41,0-.44,2.35-1.53,1.39-.65,1.74-.79,2.15-.79.34,0,.61.34.61.68,0,.24-.03.51-.07.75l-1.26,9c-.07.51-.17.99-.17,1.64,0,1.91,1.06,3.17,3.2,3.17,2.46,0,5.08-1.64,5.76-4.94l.72-5.01c.07-.48.1-.95.1-1.23,0-1.37-2.28-.58-2.28-1.74,0-.51.51-.68,2.35-1.53,1.46-.68,1.84-.79,2.15-.79.34,0,.61.3.61.68,0,.3,0,.51-.03.75l-1.53,11.01c-.07.48-.1,1.06-.1,1.26,0,.65.37,1.09.92,1.09s.99-.44,1.37-.44c.3,0,.51.24.51.65,0,1.06-1.57,2.11-2.97,2.11-1.16,0-2.22-.75-2.22-2.35,0-.21,0-.41.03-.65-1.3,1.67-3.48,3.13-6.1,3.13-2.97,0-4.87-1.88-4.87-4.84h0Z" style="fill: #7e1d3c; stroke-width: 0px;"/>
    <path d="M142.81,146.68c0-.34.07-.95.14-1.43l2.35-16.7c.07-.44.14-.92.14-1.23,0-1.37-2.32-.58-2.32-1.74,0-.48.41-.75,2.28-1.57,1.39-.61,1.84-.79,2.22-.79s.65.34.65.68c0,.27-.03.48-.07.75l-2.76,19.64c-.07.44-.14,1.06-.14,1.33,0,.68.24,1.13.92,1.13.61,0,.99-.44,1.37-.44.34,0,.55.24.55.65,0,1.06-1.5,2.11-3.04,2.11-1.26,0-2.28-.82-2.28-2.39h0Z" style="fill: #7e1d3c; stroke-width: 0px;"/>
    <path d="M150.29,141.84c0-5.73,4.4-10.09,8.93-10.09,2.25,0,3.62,1.09,4.47,1.09s1.88-1.02,2.46-1.02c.37,0,.58.31.51.75l-1.67,11.83c-.07.48-.1.99-.1,1.19,0,.72.34,1.16.88,1.16.61,0,.92-.44,1.37-.44.3,0,.51.24.51.65,0,1.06-1.5,2.11-2.93,2.11-1.19,0-2.22-.75-2.22-2.28,0-.17,0-.31.03-.58-1.37,1.74-3.51,3-5.89,3-3.55,0-6.34-2.83-6.34-7.36h0ZM157.65,147.29c2.15,0,4.78-1.64,5.31-5.22.28-1.81.44-3.24.44-4.22,0-3.07-2.01-4.57-4.22-4.57-3.27,0-6.31,3.38-6.31,7.91,0,3.82,2.22,6.1,4.78,6.1h0Z" style="fill: #7e1d3c; stroke-width: 0px;"/>
  </g>
  <path d="M84.15,43.38c-.43,0-.81-.3-.89-.74-.19-1-1.68-9.84,2.07-11.97,5.54-3.14,25.01-3.69,30.51-.06,3.43,2.28,2.75,10.93,2.66,11.9-.05.5-.49.87-.98.82-.5-.04-.86-.48-.82-.98.3-3.29.05-8.97-1.86-10.23-4.52-3-23.24-2.92-28.62.12-1.99,1.13-1.79,6.77-1.18,10.06.09.49-.23.96-.72,1.05-.06,0-.11.01-.17.01h0Z" style="fill: #7e1d3c; stroke-width: 0px;"/>
  <path d="M65.73,101.91c-.43,0-.81-.3-.89-.74-.15-.81-3.58-20,3.88-24.21,6.63-3.75,20.87-5.19,31.98-5.29,14.61-.12,26.35,1.79,31.39,5.14,6.87,4.56,5.25,23.41,5.18,24.21-.05.5-.48.87-.98.82-.5-.04-.86-.48-.82-.98.46-5.15.58-19.24-4.38-22.54-4.69-3.11-16.32-4.96-30.38-4.84-13.68.12-25.89,2.11-31.1,5.05-5.26,2.97-3.94,17.12-2.99,22.31.09.49-.23.96-.72,1.05-.06,0-.11.01-.17.01h0Z" style="fill: #7e1d3c; stroke-width: 0px;"/>
  <path d="M76.61,68.24c-.43,0-.81-.3-.89-.74-.26-1.43-2.41-14.03,2.81-16.98,7.99-4.52,36.05-5.34,43.96-.09,4.79,3.18,3.82,15.54,3.69,16.94-.05.5-.48.87-.98.82-.5-.04-.86-.48-.82-.98.32-3.51.41-13.08-2.89-15.27-6.65-4.41-34.17-4.31-42.07.16-3.48,1.97-2.57,11.55-1.93,15.08.09.49-.23.96-.72,1.05-.06,0-.11.01-.17.01h0Z" style="fill: #7e1d3c; stroke-width: 0px;"/>
  <path d="M157.76,78.14c-1.39,3.09-3.77,5.87-2.85,9.65.39,1.63.66,3.27,1.95,4.52,1.35,1.31.49,2.85.12,4.15-.88,3.07-2.18,6-4.09,8.6-.21.29-.5.53-.81.86-.6-1.23-1.17-2.25-.25-3.58,1.17-1.67,1.14-3.51.36-5.43-.67-1.66-.74-3.51-1.51-5.16-.21-.44-.3-.95-.7-1.25-.49-.08-.58.27-.7.56-.91,2.13-1.97,4.2-2.95,6.3-1.23,2.63-.86,5.56,2.98,6.76,1.93.6,2.35,2.31.9,3.73-3.51,3.46-7.31,6.52-12.2,7.83-.83.22-1.66.43-2.56.52,1.98-1.85,4.94-2.6,5.94-5.47.92-2.64.47-5.36.9-8.01-.57-.11-.68.12-.79.35-1.08,2.09-2.69,3.62-4.78,4.67-2.64,1.33-3.26,4.04-1.55,6.5.11.16.17.35.29.59-1.99,2.68-5.29,1.63-7.89,2.86.74.3,1.46.22,2.12.14,3.49-.43,7.03-.53,10.33-1.93,2.11-.9,4.21-1.82,6.31-2.74,1.67-.73,2.51-.54,3.48.93.79,1.21,1.98,1.21,3.14.99,1.48-.27,2.88-.97,3.82-2.09,1.41-1.69,2.89-3.38,3.79-5.46.11-.26.28-.48.02-.78-.59-.1-.91.41-1.34.66-2.31,1.3-4.86,1.53-7.4,1.81-1.07.12-1.75.57-2.25,1.56-.73,1.46-.8,1.41-2.93,1.41,1.04-.78,1.93-1.42,2.79-2.11,2.11-1.68,3.73-3.8,5.29-5.96,1.02-1.42,2.38-2.46,3.84-3.38.32-.2.66-.26,1-.09,3.12,1.52,6.75-.98,7.69-3.85.56-1.73,1.17-3.44,1.75-5.17v-.6c-.32.13-.66.22-.95.4-2.28,1.37-4.47,2.9-6.89,4.04-1.04.49-2.38,1.13-2.36,2.48.03,1.85-1.53,2.08-2.49,2.96.18-.6.44-1.15.69-1.7,1.2-2.75,1.7-5.7,3.03-8.48,2.13-4.42-.62-8.51-2.12-12.6h-.17Z" style="fill: #7e1d3c; stroke-width: 0px;"/>
  <path d="M43.65,78.14c1.39,3.09,3.77,5.87,2.85,9.65-.39,1.63-.66,3.27-1.95,4.52-1.35,1.31-.49,2.85-.12,4.15.88,3.07,2.18,6,4.09,8.6.21.29.5.53.81.86.6-1.23,1.17-2.25.25-3.58-1.17-1.67-1.14-3.51-.36-5.43.67-1.66.74-3.51,1.51-5.16.21-.44.3-.95.7-1.25.49-.08.58.27.7.56.91,2.13,1.97,4.2,2.95,6.3,1.23,2.63.86,5.56-2.98,6.76-1.93.6-2.35,2.31-.9,3.73,3.51,3.46,7.31,6.52,12.2,7.83.83.22,1.66.43,2.56.52-1.98-1.85-4.94-2.6-5.94-5.47-.92-2.64-.47-5.36-.9-8.01.57-.11.68.12.79.35,1.08,2.09,2.69,3.62,4.78,4.67,2.64,1.33,3.26,4.04,1.55,6.5-.11.16-.17.35-.29.59,1.99,2.68,5.29,1.63,7.89,2.86-.74.3-1.46.22-2.12.14-3.49-.43-7.03-.53-10.33-1.93-2.11-.9-4.21-1.82-6.31-2.74-1.67-.73-2.51-.54-3.48.93-.79,1.21-1.98,1.21-3.14.99-1.48-.27-2.88-.97-3.82-2.09-1.41-1.69-2.89-3.38-3.79-5.46-.11-.26-.28-.48-.02-.78.59-.1.91.41,1.34.66,2.31,1.3,4.86,1.53,7.4,1.81,1.07.12,1.75.57,2.25,1.56.73,1.46.8,1.41,2.93,1.41-1.04-.78-1.93-1.42-2.79-2.11-2.11-1.68-3.73-3.8-5.29-5.96-1.02-1.42-2.38-2.46-3.84-3.38-.32-.2-.66-.26-1-.09-3.12,1.52-6.75-.98-7.69-3.85-.56-1.73-1.17-3.44-1.75-5.17v-.6c.32.13.66.22.95.4,2.28,1.37,4.47,2.9,6.89,4.04,1.04.49,2.38,1.13,2.36,2.48-.03,1.85,1.53,2.08,2.49,2.96-.18-.6-.44-1.15-.69-1.7-1.2-2.75-1.7-5.7-3.03-8.48-2.13-4.42.62-8.51,2.12-12.6h.17Z" style="fill: #7e1d3c; stroke-width: 0px;"/>
  <g>
    <path d="M37.04,163.67l-.31-.66c-.19-.38-.28-.53-.28-.66,0-.14.08-.22.21-.22.1,0,.22.09.32.2.66.66,1.38,1.11,2.14,1.11.68,0,1.1-.38,1.1-.86,0-.58-.57-.7-1.5-.92-1-.25-2.12-.57-2.12-1.59,0-.78.69-1.4,1.73-1.4.58,0,1.02.19,1.19.19.18,0,.18-.21.37-.21.18,0,.27.15.38.35l.34.56c.11.19.23.4.23.52,0,.12-.09.21-.2.21s-.22-.1-.32-.2c-.53-.48-1.23-.89-1.9-.89-.55,0-.89.28-.89.66,0,.53.48.64,1.5.89,1.07.27,2.12.58,2.12,1.68,0,.94-.84,1.54-2.02,1.54-.7,0-1.18-.23-1.34-.23-.2,0-.22.26-.44.26-.16,0-.25-.18-.32-.33Z" style="fill: #7e1d3c; stroke-width: 0px;"/>
    <path d="M47.68,163.34c0,.2-.19.3-.83.45-.45.11-.62.14-.72.14-.19,0-.22-.19-.22-.35v-.6c-.33.54-.86.99-1.74.99-1.16,0-1.72-.78-1.72-2v-1.78c0-.62-.82-.38-.82-.75,0-.19.18-.29.78-.52.53-.2.66-.22.73-.22.22,0,.24.21.24.37v2.75c0,.82.23,1.39,1.1,1.39.71,0,1.43-.53,1.43-1.57v-1.46c0-.62-.91-.36-.91-.75,0-.18.19-.28.87-.53.49-.18.67-.21.75-.21.19,0,.22.19.22.37v3.44c0,.63.85.47.85.81ZM43.01,157.17c0-.31.26-.58.64-.58s.65.22.65.56-.28.59-.65.59-.64-.22-.64-.57ZM44.82,157.17c0-.31.26-.58.64-.58s.64.22.64.56-.27.58-.64.58-.64-.21-.64-.56Z" style="fill: #7e1d3c; stroke-width: 0px;"/>
    <path d="M51.86,162.99c0,.12-.07.26-.21.4-.37.39-.88.58-1.43.58-.79,0-1.35-.44-1.35-.97,0-.22.02-1.01.02-1.72v-1.94h-.67c-.19,0-.3-.08-.3-.24,0-.13.1-.22.27-.29.62-.26.9-.63,1.13-1.57.09-.27.15-.39.31-.39.11,0,.19.08.19.27v1.67h1.76c.11,0,.18.05.18.14,0,.07-.02.18-.03.24-.02.11-.08.16-.19.16h-1.72v2.99c0,.76.3.99.72.99s.66-.25.87-.42c.06-.06.15-.13.25-.13.12,0,.21.1.21.23Z" style="fill: #7e1d3c; stroke-width: 0px;"/>
    <path d="M57.08,162.78c0,.06-.03.14-.09.25-.38.55-1.28,1.01-2.18,1.01-1.4,0-2.59-.98-2.59-2.7,0-1.62,1.19-2.74,2.54-2.74,1.27,0,2.11.97,2.11,1.98,0,.22-.06.28-.22.33l-3.31.99c.28.85.95,1.44,1.8,1.44.61,0,1.12-.27,1.45-.64.1-.1.19-.15.27-.15.11,0,.21.1.21.24ZM53.19,160.95c0,.14.01.28.03.41l2.38-.74c.19-.05.24-.1.24-.28,0-.52-.48-1.15-1.22-1.15-.81,0-1.43.7-1.43,1.76Z" style="fill: #7e1d3c; stroke-width: 0px;"/>
    <path d="M66.6,163.69c0,.13-.13.2-.29.2-.29,0-.48-.03-.9-.03-.44,0-.6.03-.89.03-.18,0-.3-.09-.3-.22,0-.37.7-.12.7-.76,0-.08-.01-.21-.03-.31l-.26-1.74c-.07-.53-.2-1.39-1-1.39-.61,0-1.16.44-1.16,1.45v1.83c0,.83.68.54.68.93,0,.09-.08.21-.24.21-.23,0-.53-.03-.91-.03-.36,0-.64.03-.87.03-.16,0-.25-.11-.25-.21,0-.39.65-.09.65-.93v-1.9c0-.6-.13-1.39-.95-1.39-.62,0-1.29.47-1.29,1.54v1.75c0,.83.67.54.67.93,0,.09-.07.21-.23.21-.23,0-.53-.03-.91-.03-.36,0-.64.03-.87.03-.16,0-.25-.11-.25-.21,0-.39.65-.09.65-.93v-2.53c0-.64-.73-.29-.73-.69,0-.16.19-.28.71-.54.54-.27.64-.29.73-.29.18,0,.22.15.22.36v.61c.33-.54.87-1,1.64-1s1.17.46,1.36,1.02c.29-.56.79-1.02,1.6-1.02,1.19,0,1.52,1.06,1.65,2.04l.28,1.93c.14.97.76.63.76,1.04Z" style="fill: #7e1d3c; stroke-width: 0px;"/>
    <path d="M71.78,162.78c0,.06-.03.14-.09.25-.38.55-1.28,1.01-2.18,1.01-1.4,0-2.59-.98-2.59-2.7,0-1.62,1.19-2.74,2.54-2.74,1.27,0,2.11.97,2.11,1.98,0,.22-.06.28-.22.33l-3.31.99c.28.85.95,1.44,1.8,1.44.61,0,1.12-.27,1.45-.64.1-.1.19-.15.27-.15.11,0,.21.1.21.24ZM67.89,160.95c0,.14.01.28.03.41l2.38-.74c.19-.05.24-.1.24-.28,0-.52-.48-1.15-1.22-1.15-.81,0-1.43.7-1.43,1.76ZM68.96,157.86c0-.07.03-.14.09-.26.31-.55.56-.94.8-1.31.11-.15.2-.21.46-.21.34,0,.45.03.45.19,0,.11-.1.26-.32.49-.16.19-.66.75-.9,1.01-.18.2-.28.22-.39.22s-.21-.05-.21-.13Z" style="fill: #7e1d3c; stroke-width: 0px;"/>
    <path d="M78.33,163.68c0,.14-.12.21-.29.21-.27,0-.48-.03-.9-.03s-.61.03-.89.03c-.19,0-.29-.09-.29-.22,0-.37.69-.12.69-.76,0-.08-.02-.21-.03-.31l-.25-1.74c-.08-.53-.27-1.39-1.08-1.39-.62,0-1.29.49-1.29,1.55v1.74c0,.83.67.54.67.93,0,.09-.07.21-.23.21-.23,0-.54-.03-.91-.03s-.65.03-.87.03c-.18,0-.25-.11-.25-.21,0-.39.65-.09.65-.93v-2.53c0-.64-.73-.29-.73-.69,0-.16.19-.28.72-.54.53-.26.64-.29.72-.29.16,0,.22.13.22.36v.61c.33-.54.87-1,1.66-1,1.23,0,1.53,1.2,1.64,2.04l.27,1.93c.12.97.75.63.75,1.03Z" style="fill: #7e1d3c; stroke-width: 0px;"/>
    <path d="M83.79,158.94c0,.32-.54.23-.78.81l-1.93,4.55c-.4.96-.97,1.52-1.72,1.52-.32,0-.61-.09-.71-.23-.14-.2-.32-.85-.32-1.11,0-.15.08-.28.22-.28.11,0,.16.06.26.2.3.46.54.69.8.69.35,0,.68-.4.96-1.08l.06-.15-1.81-4.07c-.27-.61-.78-.52-.78-.83,0-.13.1-.2.24-.2.27,0,.55.03.99.03.39,0,.68-.03.91-.03.16,0,.27.07.27.22,0,.34-.6.21-.6.68,0,.08.04.3.15.57l1.12,2.63,1.07-2.63c.1-.28.18-.45.18-.61,0-.42-.63-.3-.63-.64,0-.14.1-.22.27-.22.21,0,.48.03.75.03.29,0,.54-.03.79-.03.14,0,.25.07.25.2Z" style="fill: #7e1d3c; stroke-width: 0px;"/>
    <path d="M84.07,161.25v-.18c0-.24.07-.31.28-.31h2.11c.21,0,.28.07.28.31v.18c0,.25-.07.31-.28.31h-2.11c-.21,0-.28-.06-.28-.31Z" style="fill: #7e1d3c; stroke-width: 0px;"/>
    <path d="M95.11,162.78c0,.06-.03.14-.09.25-.38.55-1.28,1.01-2.18,1.01-1.4,0-2.59-.98-2.59-2.7,0-1.62,1.19-2.74,2.54-2.74,1.27,0,2.11.97,2.11,1.98,0,.22-.06.28-.22.33l-3.31.99c.28.85.95,1.44,1.8,1.44.61,0,1.12-.27,1.45-.64.1-.1.19-.15.27-.15.11,0,.21.1.21.24ZM91.22,160.95c0,.14.01.28.03.41l2.38-.74c.19-.05.24-.1.24-.28,0-.52-.48-1.15-1.22-1.15-.81,0-1.43.7-1.43,1.76ZM92.28,157.86c0-.07.03-.14.09-.26.31-.55.56-.94.8-1.31.11-.15.2-.21.46-.21.34,0,.45.03.45.19,0,.11-.1.26-.32.49-.16.19-.66.75-.9,1.01-.18.2-.28.22-.39.22s-.21-.05-.21-.13Z" style="fill: #7e1d3c; stroke-width: 0px;"/>
    <path d="M96.27,163.67l-.31-.66c-.19-.38-.28-.53-.28-.66,0-.14.08-.22.21-.22.1,0,.22.09.32.2.66.66,1.38,1.11,2.14,1.11.68,0,1.1-.38,1.1-.86,0-.58-.57-.7-1.5-.92-1-.25-2.12-.57-2.12-1.59,0-.78.69-1.4,1.73-1.4.58,0,1.02.19,1.19.19.18,0,.18-.21.37-.21.18,0,.27.15.38.35l.34.56c.11.19.23.4.23.52,0,.12-.09.21-.2.21s-.22-.1-.32-.2c-.53-.48-1.23-.89-1.9-.89-.55,0-.89.28-.89.66,0,.53.48.64,1.5.89,1.07.27,2.12.58,2.12,1.68,0,.94-.84,1.54-2.02,1.54-.7,0-1.18-.23-1.34-.23-.2,0-.22.26-.44.26-.16,0-.25-.18-.32-.33Z" style="fill: #7e1d3c; stroke-width: 0px;"/>
    <path d="M107.26,162.99c0,.12-.07.26-.21.4-.37.39-.88.58-1.43.58-.79,0-1.35-.44-1.35-.97,0-.22.02-1.01.02-1.72v-1.94h-.67c-.19,0-.3-.08-.3-.24,0-.13.1-.22.27-.29.62-.26.9-.63,1.13-1.57.09-.27.15-.39.31-.39.11,0,.19.08.19.27v1.67h1.76c.11,0,.18.05.18.14,0,.07-.02.18-.03.24-.02.11-.08.16-.19.16h-1.72v2.99c0,.76.3.99.72.99s.66-.25.87-.42c.06-.06.15-.13.25-.13.12,0,.21.1.21.23Z" style="fill: #7e1d3c; stroke-width: 0px;"/>
    <path d="M107.62,161.36c0-1.59,1.19-2.76,2.8-2.76s2.68,1.11,2.68,2.7-1.2,2.74-2.8,2.74-2.68-1.11-2.68-2.68ZM112.11,161.66c0-1.3-.77-2.49-1.9-2.49-.98,0-1.59.78-1.59,1.82,0,1.29.77,2.49,1.9,2.49.98,0,1.59-.79,1.59-1.82Z" style="fill: #7e1d3c; stroke-width: 0px;"/>
    <path d="M117.99,159.14c0,.15-.06.41-.19.87-.05.18-.13.28-.28.28-.13,0-.2-.11-.26-.28-.13-.32-.27-.47-.48-.47-.49,0-1.35.79-1.35,2.24v.98c0,.83.8.51.8.93,0,.09-.07.21-.23.21-.26,0-.62-.03-1.04-.03-.36,0-.65.03-.87.03-.18,0-.25-.11-.25-.21,0-.39.65-.09.65-.93v-2.53c0-.64-.73-.29-.73-.69,0-.16.19-.28.72-.54.53-.26.64-.29.72-.29.16,0,.22.13.22.36v1.06c.34-.88,1.09-1.46,1.82-1.46.43,0,.73.22.73.47Z" style="fill: #7e1d3c; stroke-width: 0px;"/>
    <path d="M122.11,162.99c0,.12-.07.26-.21.4-.37.39-.88.58-1.43.58-.79,0-1.35-.44-1.35-.97,0-.22.02-1.01.02-1.72v-1.94h-.67c-.19,0-.3-.08-.3-.24,0-.13.1-.22.27-.29.62-.26.9-.63,1.13-1.57.09-.27.15-.39.31-.39.11,0,.19.08.19.27v1.67h1.76c.11,0,.18.05.18.14,0,.07-.02.18-.03.24-.02.11-.08.16-.19.16h-1.72v2.99c0,.76.3.99.72.99s.66-.25.87-.42c.06-.06.15-.13.25-.13.12,0,.21.1.21.23Z" style="fill: #7e1d3c; stroke-width: 0px;"/>
    <path d="M127.95,163.43c0,.2-.39.51-.88.51-.42,0-.79-.25-.95-.78-.4.47-1.07.81-1.89.81-1.06,0-1.75-.63-1.75-1.54s.78-1.62,2.09-1.62c.45,0,.85.08,1.23.2l-.02-.13c-.15-1.14-.56-1.49-1.24-1.49-.46,0-.89.25-1.26.59-.1.08-.19.12-.26.12-.1,0-.21-.08-.21-.21,0-.1.06-.2.16-.33.34-.47,1.09-.89,1.87-.89,1.33,0,1.66.92,1.8,1.92l.26,1.73c.1.77.33.86.87.96.11.02.16.07.16.15ZM126.02,162.56l-.14-1.02c-.35-.13-.73-.21-1.09-.21-.87,0-1.32.39-1.32,1.01,0,.59.44,1,1.08,1s1.18-.37,1.47-.78Z" style="fill: #7e1d3c; stroke-width: 0px;"/>
    <path d="M137.09,163.69c0,.13-.13.2-.29.2-.29,0-.48-.03-.9-.03-.44,0-.6.03-.89.03-.18,0-.3-.09-.3-.22,0-.37.7-.12.7-.76,0-.08-.01-.21-.03-.31l-.26-1.74c-.07-.53-.2-1.39-1-1.39-.61,0-1.16.44-1.16,1.45v1.83c0,.83.68.54.68.93,0,.09-.08.21-.24.21-.23,0-.53-.03-.91-.03-.36,0-.64.03-.87.03-.16,0-.25-.11-.25-.21,0-.39.65-.09.65-.93v-1.9c0-.6-.13-1.39-.95-1.39-.62,0-1.29.47-1.29,1.54v1.75c0,.83.67.54.67.93,0,.09-.07.21-.23.21-.23,0-.53-.03-.91-.03-.36,0-.64.03-.87.03-.16,0-.25-.11-.25-.21,0-.39.65-.09.65-.93v-2.53c0-.64-.73-.29-.73-.69,0-.16.19-.28.71-.54.54-.27.64-.29.73-.29.18,0,.22.15.22.36v.61c.33-.54.87-1,1.64-1s1.17.46,1.36,1.02c.29-.56.79-1.02,1.6-1.02,1.19,0,1.52,1.06,1.65,2.04l.28,1.93c.14.97.76.63.76,1.04Z" style="fill: #7e1d3c; stroke-width: 0px;"/>
    <path d="M143.22,163.34c0,.2-.19.3-.83.45-.45.11-.62.14-.72.14-.19,0-.22-.19-.22-.35v-.6c-.33.54-.86.99-1.74.99-1.16,0-1.72-.78-1.72-2v-1.78c0-.62-.82-.38-.82-.75,0-.19.18-.29.78-.52.53-.2.66-.22.73-.22.22,0,.24.21.24.37v2.75c0,.82.23,1.39,1.1,1.39.71,0,1.43-.53,1.43-1.57v-1.46c0-.62-.91-.36-.91-.75,0-.18.19-.28.87-.53.49-.18.67-.21.75-.21.19,0,.22.19.22.37v3.44c0,.63.85.47.85.81ZM139.31,157.91c0-.07.02-.15.06-.28.16-.46.34-.88.56-1.31.08-.19.15-.24.39-.24.27,0,.37.05.37.21,0,.11-.07.24-.22.46-.22.36-.44.73-.69,1.09-.12.19-.22.22-.31.22-.1,0-.16-.05-.16-.15ZM140.68,157.64c.16-.46.33-.88.55-1.31.09-.19.16-.24.4-.24.26,0,.37.05.37.21,0,.11-.08.24-.22.46-.22.36-.44.73-.69,1.09-.12.19-.22.22-.31.22-.1,0-.18-.05-.18-.15,0-.07.03-.15.07-.28Z" style="fill: #7e1d3c; stroke-width: 0px;"/>
    <path d="M149.59,163.69c0,.13-.12.2-.28.2-.28,0-.48-.03-.9-.03-.43,0-.61.03-.89.03-.19,0-.3-.09-.3-.22,0-.37.69-.12.69-.75,0-.08-.01-.19-.02-.27l-.25-1.79c-.08-.53-.28-1.39-1.08-1.39-.62,0-1.29.49-1.29,1.55v1.74c0,.83.66.54.66.93,0,.09-.06.21-.22.21-.23,0-.54-.03-.91-.03s-.65.03-.88.03c-.16,0-.24-.11-.24-.21,0-.39.65-.09.65-.93v-5.18c0-.64-.73-.29-.73-.69,0-.16.18-.29.72-.55.53-.25.63-.28.74-.28.14,0,.2.12.2.27v3.35c.33-.54.87-1,1.65-1,1.25,0,1.54,1.2,1.65,2.04l.26,1.93c.13.97.75.63.75,1.04Z" style="fill: #7e1d3c; stroke-width: 0px;"/>
    <path d="M154.79,162.78c0,.06-.03.14-.09.25-.38.55-1.28,1.01-2.18,1.01-1.4,0-2.59-.98-2.59-2.7,0-1.62,1.19-2.74,2.54-2.74,1.27,0,2.11.97,2.11,1.98,0,.22-.06.28-.22.33l-3.31.99c.28.85.95,1.44,1.8,1.44.61,0,1.12-.27,1.45-.64.1-.1.19-.15.27-.15.11,0,.21.1.21.24ZM150.9,160.95c0,.14.01.28.03.41l2.38-.74c.19-.05.24-.1.24-.28,0-.52-.48-1.15-1.22-1.15-.81,0-1.43.7-1.43,1.76Z" style="fill: #7e1d3c; stroke-width: 0px;"/>
    <path d="M155.34,163.68c0-.39.65-.09.65-.93v-5.18c0-.64-.73-.29-.73-.69,0-.16.18-.29.72-.55.53-.25.63-.28.72-.28.16,0,.22.13.22.36v6.33c0,.83.66.54.66.93,0,.09-.06.21-.22.21-.23,0-.54-.03-.91-.03s-.65.03-.88.03c-.16,0-.24-.11-.24-.21Z" style="fill: #7e1d3c; stroke-width: 0px;"/>
    <path d="M163.55,158.94c0,.32-.54.23-.78.81l-1.93,4.55c-.4.96-.97,1.52-1.72,1.52-.32,0-.61-.09-.71-.23-.14-.2-.32-.85-.32-1.11,0-.15.08-.28.22-.28.11,0,.16.06.26.2.3.46.54.69.8.69.35,0,.68-.4.96-1.08l.06-.15-1.81-4.07c-.27-.61-.78-.52-.78-.83,0-.13.1-.2.24-.2.27,0,.55.03.99.03.39,0,.68-.03.91-.03.16,0,.27.07.27.22,0,.34-.6.21-.6.68,0,.08.04.3.15.57l1.12,2.63,1.07-2.63c.1-.28.18-.45.18-.61,0-.42-.63-.3-.63-.64,0-.14.1-.22.27-.22.21,0,.48.03.75.03.29,0,.54-.03.79-.03.14,0,.25.07.25.2Z" style="fill: #7e1d3c; stroke-width: 0px;"/>
  </g>
  <path d="M100,0C60.8-.41,23.19,24.9,8.89,61.38c-26.19,64.41,21.63,135.34,91.11,135.24,69.48.09,117.29-70.83,91.11-135.23C176.8,24.9,139.2-.41,100,0h0ZM100,0c39.32-.46,77.06,24.64,92.05,60.99,27.77,65.68-20.67,138.89-92.05,138.86-71.37.02-119.82-73.19-92.05-138.86C22.95,24.66,60.68-.46,100,0h0Z" style="fill: #7e1d3c; stroke-width: 0px;"/>
</svg>