<?xml version="1.0" encoding="UTF-8"?>
<svg id="a" xmlns="http://www.w3.org/2000/svg" viewBox="0 0 200 177.22">
  <g>
    <g id="b">
      <g>
        <path d="M108.82,109.34c-1.83,0-8.35-1.81-9.1-2.03l-.88-.25.54-.73c.51-.69,5.02-6.73,6.61-7.58l.28-.15c1.05-.56,3.01-1.61,4.71-2.06,1.54-.41,2.44.13,3.23.61.38.23.73.44,1.16.59,1.51.47,3.16,1.11,3.6,2.75.41,1.49-.26,3.42-1.7,4.9-.31.32-.51.7-.72,1.11-.41.82-.88,1.73-2.3,2.12-1.95.53-4.01.66-5.38.72h-.09.03ZM100.93,106.36c2.41.66,6.83,1.78,7.93,1.74,1.32-.04,3.26-.18,5.09-.67.89-.25,1.16-.76,1.51-1.48.23-.45.48-.97.94-1.42,1.13-1.14,1.68-2.63,1.39-3.7-.25-.92-1.24-1.4-2.77-1.89-.57-.18-1.04-.45-1.43-.7-.72-.44-1.24-.76-2.25-.48-1.58.42-3.53,1.46-4.46,1.96l-.28.15c-.92.48-3.75,3.98-5.65,6.48h-.01Z" style="fill: #f6cfc5; stroke-width: 0px;"/>
        <path d="M108.82,109.53c-1.92,0-8.85-1.96-9.16-2.03l-1.13-.32.7-.94c.51-.69,5.03-6.76,6.69-7.64l.28-.15c1.05-.56,3.01-1.61,4.76-2.08,1.61-.44,2.59.16,3.38.64.38.23.72.44,1.13.57,1.55.48,3.25,1.16,3.73,2.88.42,1.57-.26,3.56-1.74,5.08-.29.29-.48.67-.67,1.05-.41.82-.92,1.81-2.41,2.22-1.98.54-4.04.67-5.41.72h-.13ZM99.15,106.97l.61.18c.29.09,7.18,2.02,9.06,2.02h.07c1.36-.06,3.39-.18,5.34-.7,1.35-.37,1.77-1.21,2.18-2.02.22-.42.41-.82.75-1.16,1.39-1.43,2.05-3.28,1.65-4.73-.42-1.55-2.02-2.17-3.48-2.63-.45-.15-.8-.37-1.2-.6-.8-.5-1.62-.99-3.1-.6-1.7.47-3.63,1.49-4.68,2.05l-.28.15c-1.27.67-4.73,5.05-6.55,7.52l-.38.51h.01ZM108.79,108.29c-1.38,0-6.38-1.33-7.9-1.76l-.26-.07.16-.22c.45-.6,4.48-5.88,5.71-6.54l.28-.15c.94-.5,2.9-1.55,4.49-1.98,1.1-.29,1.67.06,2.4.5.4.23.83.51,1.39.69,1.58.5,2.62,1.01,2.9,2.02.31,1.13-.26,2.68-1.43,3.88-.42.44-.67.94-.91,1.38-.37.73-.66,1.32-1.62,1.58-1.84.5-3.82.63-5.14.67h-.07.01ZM101.24,106.26c3.06.82,6.53,1.67,7.55,1.67h.07c1.3-.04,3.25-.18,5.06-.66.8-.22,1.04-.67,1.39-1.38.23-.47.5-.99.97-1.48,1.07-1.1,1.61-2.52,1.35-3.53-.23-.85-1.19-1.3-2.65-1.77-.6-.19-1.07-.47-1.48-.72-.7-.44-1.17-.72-2.12-.45-1.55.42-3.48,1.45-4.42,1.95l-.28.15c-.8.42-3.34,3.48-5.43,6.22h-.01Z" style="fill: #f6cfc5; stroke-width: 0px;"/>
      </g>
    </g>
    <g id="c">
      <g>
        <path d="M109.47,123.42c-.94,0-1.95-.23-2.9-.72-.4-.2-.83-.26-1.27-.34-.89-.13-1.92-.29-2.72-1.54-1.11-1.68-1.86-3.6-2.34-4.89-.59-1.59-.88-8.57-.91-9.36l-.03-.91.86.29c.8.28,7.96,2.69,9.25,3.95l.22.22c.86.83,2.46,2.37,3.42,3.85.86,1.33.63,2.36.41,3.26-.1.42-.19.83-.19,1.29.01,1.58-.09,3.35-1.51,4.27-.63.41-1.42.61-2.28.61h-.01ZM100.61,107.44c.12,2.5.41,7.04.79,8.08.45,1.23,1.17,3.06,2.21,4.64.5.78,1.08.86,1.87.98.5.07,1.07.16,1.64.45,1.43.72,3.03.78,3.95.18.8-.53.95-1.62.94-3.22,0-.6.12-1.13.22-1.58.19-.82.34-1.42-.23-2.3-.89-1.36-2.49-2.9-3.25-3.63l-.23-.22c-.75-.73-4.95-2.34-7.92-3.37h.01Z" style="fill: #f6cfc5; stroke-width: 0px;"/>
        <path d="M109.47,123.59c-.98,0-2.02-.25-2.98-.73-.38-.19-.79-.25-1.23-.32-.89-.13-2-.31-2.85-1.61-1.11-1.7-1.89-3.63-2.36-4.93-.56-1.51-.85-7.59-.92-9.42l-.04-1.17,1.11.38c.82.28,7.99,2.69,9.32,3.99l.22.22c.86.83,2.47,2.38,3.45,3.88.91,1.39.64,2.52.44,3.41-.1.42-.19.8-.19,1.24.01,1.62-.09,3.45-1.58,4.43-.64.42-1.46.64-2.38.64h0ZM99.47,105.93l.03.64c.06,1.29.35,7.81.89,9.32.47,1.29,1.23,3.19,2.33,4.86.76,1.17,1.7,1.32,2.6,1.45.44.07.91.13,1.33.35,1.76.86,3.77.91,5,.12,1.35-.88,1.43-2.59,1.42-4.13,0-.47.09-.89.19-1.33.2-.88.44-1.86-.38-3.12-.97-1.46-2.55-3-3.39-3.82l-.22-.22c-1.04-1.01-6.26-2.94-9.19-3.91l-.6-.2h-.01ZM109.47,122.35c-.78,0-1.62-.2-2.44-.6-.54-.28-1.1-.35-1.58-.42-.82-.13-1.45-.22-2-1.07-1.04-1.59-1.77-3.42-2.22-4.68-.45-1.23-.75-6.99-.8-8.13v-.26l.25.09c.72.25,6.98,2.44,7.99,3.41l.23.22c.76.73,2.37,2.27,3.28,3.66.61.95.47,1.61.26,2.44-.1.44-.23.95-.22,1.54.01,1.65-.15,2.79-1.02,3.38-.44.29-1.04.44-1.68.44h-.03ZM100.8,107.69c.16,3.09.44,6.86.78,7.75.45,1.23,1.17,3.04,2.19,4.59.45.7.97.78,1.74.91.51.07,1.1.18,1.7.47,1.39.69,2.9.76,3.76.19.73-.48.88-1.54.86-3.07,0-.63.13-1.19.23-1.62.19-.8.32-1.33-.22-2.15-.89-1.35-2.46-2.87-3.22-3.6l-.23-.22c-.66-.63-4.35-2.11-7.59-3.23h0Z" style="fill: #f6cfc5; stroke-width: 0px;"/>
      </g>
    </g>
    <g id="d">
      <g>
        <path d="M90.26,123.46c-.69,0-1.36-.18-1.96-.64-1.21-.98-1.8-2.93-1.51-4.96.06-.44,0-.86-.07-1.32-.15-.89-.31-1.92.61-3.07,1.27-1.58,2.85-2.88,3.94-3.73,1.33-1.04,7.89-3.48,8.63-3.76l.85-.31v.91c-.01.85-.12,8.4-.91,10.02l-.13.28c-.53,1.07-1.49,3.06-2.6,4.45-.99,1.24-2.05,1.32-2.98,1.4-.44.03-.85.07-1.29.22-.83.28-1.71.54-2.58.54v-.03ZM99.48,107.46c-2.34.89-6.55,2.56-7.43,3.25-1.04.8-2.55,2.06-3.73,3.54-.57.72-.48,1.29-.35,2.08.09.5.18,1.07.09,1.7-.23,1.58.19,3.12,1.05,3.8.75.6,1.83.41,3.35-.1.57-.19,1.11-.23,1.58-.28.83-.07,1.45-.12,2.11-.94,1.02-1.27,1.99-3.26,2.44-4.21l.15-.29c.45-.94.7-5.41.76-8.57v.03Z" style="fill: #f6cfc5; stroke-width: 0px;"/>
        <path d="M90.26,123.64c-.82,0-1.49-.22-2.08-.69-1.26-1.01-1.87-3.03-1.58-5.12.06-.41,0-.82-.07-1.26-.15-.89-.32-2,.64-3.22,1.29-1.59,2.87-2.91,3.96-3.76,1.36-1.07,7.93-3.51,8.68-3.79l1.1-.41v1.17c-.03,1.4-.13,8.49-.94,10.1l-.13.28c-.53,1.08-1.49,3.09-2.62,4.48-1.05,1.3-2.19,1.39-3.1,1.46-.44.04-.83.07-1.24.2-.85.29-1.76.56-2.63.56h.01ZM100.56,105.92l-.6.22c-2.68.99-7.51,2.9-8.57,3.73-1.07.85-2.65,2.14-3.91,3.7-.88,1.1-.72,2.06-.57,2.93.07.47.15.91.07,1.38-.29,1.98.28,3.85,1.43,4.78.51.41,1.11.61,1.84.61.82,0,1.7-.25,2.52-.53.44-.15.86-.19,1.3-.22.97-.07,1.93-.16,2.88-1.33,1.1-1.36,2.06-3.35,2.58-4.4l.15-.28c.78-1.58.88-9.09.88-9.93v-.64h0ZM90.26,122.39c-.5,0-.92-.12-1.29-.41-.91-.73-1.36-2.33-1.13-3.98.09-.6,0-1.16-.07-1.64-.13-.82-.23-1.45.4-2.22,1.21-1.51,2.72-2.75,3.76-3.57,1.04-.8,6.42-2.87,7.49-3.28l.25-.1v.28c-.01.75-.18,7.39-.79,8.65l-.15.29c-.47.95-1.43,2.94-2.47,4.24-.7.88-1.38.94-2.24,1.01-.47.04-.98.09-1.54.26-.88.29-1.61.48-2.24.48h.01ZM99.29,107.72c-2.88,1.1-6.39,2.55-7.14,3.13-1.02.8-2.52,2.03-3.7,3.51-.53.66-.44,1.16-.32,1.93.09.53.18,1.1.09,1.77-.22,1.52.18,2.98.98,3.63.69.56,1.73.37,3.17-.13.6-.2,1.14-.25,1.61-.28.83-.07,1.38-.12,1.99-.86,1.01-1.27,1.98-3.23,2.43-4.17l.15-.29c.4-.82.66-4.77.73-8.22h.01Z" style="fill: #f6cfc5; stroke-width: 0px;"/>
      </g>
    </g>
    <g id="e">
      <g>
        <path d="M90.89,109.58c-.13,0-.23,0-.34-.01l-.31-.04c-1.19-.16-3.38-.47-5.03-1.1-1.48-.57-1.89-1.54-2.25-2.4-.18-.41-.32-.79-.6-1.16-.94-1.27-1.9-2.77-1.3-4.35.56-1.45,2.22-2.62,4.26-2.97.44-.07.82-.28,1.23-.48.8-.41,1.73-.89,3.1-.37,1.89.72,3.63,1.81,4.77,2.59,1.4.95,5.75,6.42,6.25,7.04l.56.72-.86.28c-.78.25-7.26,2.25-9.47,2.25ZM88.48,97.73c-.48,0-.88.2-1.36.45-.45.23-.97.5-1.59.6-1.58.26-2.9,1.14-3.29,2.18-.34.89.18,1.87,1.13,3.16.37.48.57.98.75,1.42.32.78.56,1.35,1.54,1.71,1.52.59,3.72.88,4.77,1.02l.31.04c1.04.16,5.37-1.01,8.38-1.93-1.57-1.96-4.46-5.44-5.4-6.07-1.08-.73-2.74-1.78-4.52-2.46-.28-.1-.51-.15-.73-.15h.03Z" style="fill: #f6cfc5; stroke-width: 0px;"/>
        <path d="M90.89,109.77c-.13,0-.26,0-.37-.01l-.31-.04c-1.19-.16-3.39-.47-5.08-1.11-1.57-.6-2-1.65-2.36-2.5-.16-.4-.32-.78-.57-1.11-.97-1.3-1.96-2.84-1.32-4.52.57-1.51,2.3-2.72,4.39-3.07.41-.07.79-.26,1.17-.47.8-.41,1.8-.92,3.25-.37,1.92.73,3.66,1.83,4.81,2.6,1.45.97,5.79,6.47,6.29,7.08l.73.92-1.11.35c-1.21.38-7.36,2.27-9.52,2.27h-.01ZM88.46,96.66c-.72,0-1.29.29-1.83.57-.42.22-.82.42-1.29.5-1.96.34-3.58,1.45-4.11,2.85-.57,1.49.37,2.94,1.27,4.17.28.38.44.78.61,1.2.37.86.73,1.77,2.15,2.3,1.64.61,3.82.92,4.99,1.08l.31.04c.09,0,.19.01.31.01,2.12,0,8.22-1.87,9.42-2.25l.61-.19-.4-.5c-.19-.25-4.78-6.04-6.2-7.01-1.13-.76-2.85-1.86-4.73-2.56-.41-.16-.79-.22-1.11-.22h-.01ZM90.95,108.52c-.1,0-.18,0-.25-.01l-.31-.04c-1.05-.15-3.25-.45-4.8-1.04-1.05-.4-1.32-1.02-1.64-1.81-.18-.44-.38-.91-.73-1.38-.99-1.33-1.52-2.36-1.16-3.34.41-1.1,1.8-2.02,3.44-2.3.6-.1,1.1-.35,1.54-.59.5-.26.94-.48,1.45-.48.25,0,.51.06.79.16,1.8.69,3.45,1.74,4.55,2.47,1.05.72,4.42,4.86,5.43,6.1l.18.2-.26.07c-1.11.34-6.51,1.95-8.21,1.95v.03ZM88.48,97.9c-.42,0-.8.19-1.27.42-.47.25-.99.51-1.65.63-1.52.26-2.78,1.08-3.16,2.06-.31.82.19,1.76,1.11,2.98.37.5.59,1.01.76,1.45.32.78.53,1.27,1.43,1.62,1.52.57,3.69.88,4.73,1.02l.31.04c.92.13,4.64-.82,8.05-1.84-2.02-2.5-4.39-5.3-5.18-5.82-1.08-.73-2.72-1.77-4.48-2.44-.25-.09-.47-.13-.67-.13h.03Z" style="fill: #f6cfc5; stroke-width: 0px;"/>
      </g>
    </g>
    <g id="f">
      <g>
        <path d="M100.04,107.92l-.53-.73c-.5-.7-4.86-6.85-5.16-8.63l-.06-.31c-.2-1.17-.6-3.35-.51-5.12.07-1.58.88-2.28,1.59-2.88.34-.29.64-.56.91-.92.92-1.29,2.02-2.66,3.73-2.58,1.55.07,3.17,1.3,4.13,3.13.2.4.51.7.83,1.02.64.64,1.38,1.36,1.3,2.84-.1,2.03-.61,4.01-.98,5.34-.47,1.62-4.33,7.45-4.77,8.12l-.5.75v-.03ZM99.88,87.98c-.92,0-1.67.79-2.58,2.05-.35.5-.76.85-1.11,1.16-.64.56-1.1.95-1.16,1.99-.07,1.62.31,3.8.5,4.84l.06.32c.18,1.02,2.62,4.8,4.42,7.37,1.38-2.11,3.8-5.93,4.11-7.01.35-1.26.85-3.16.94-5.05.04-.92-.37-1.33-.94-1.89-.37-.35-.76-.76-1.07-1.33-.75-1.42-1.99-2.4-3.09-2.46h-.09Z" style="fill: #f6cfc5; stroke-width: 0px;"/>
        <path d="M100.04,108.25l-.67-.95c-.5-.7-4.87-6.89-5.19-8.71l-.06-.31c-.2-1.17-.6-3.37-.51-5.16.09-1.67.95-2.41,1.65-3.01.34-.29.63-.54.88-.89.92-1.29,2.03-2.65,3.72-2.65h.18c1.61.07,3.29,1.35,4.29,3.22.19.37.5.67.8.98.64.63,1.43,1.42,1.36,2.98-.1,2.06-.61,4.05-.99,5.37-.45,1.61-4.07,7.08-4.78,8.16l-.66.98h0ZM99.86,86.91c-1.51,0-2.52,1.23-3.42,2.5-.28.38-.59.66-.92.95-.69.59-1.46,1.26-1.54,2.77-.09,1.76.31,3.92.51,5.08l.06.31c.25,1.42,3.34,6.04,5.14,8.56l.37.53.35-.53c.44-.66,4.29-6.47,4.74-8.06.37-1.3.88-3.28.98-5.3.07-1.39-.6-2.06-1.26-2.71-.34-.34-.66-.64-.88-1.07-.92-1.77-2.49-2.96-3.98-3.03-.06,0-.1,0-.15,0ZM100.01,106.05l-.16-.22c-.42-.61-4.21-6.09-4.45-7.45l-.06-.31c-.19-1.08-.57-3.25-.5-4.89.06-1.13.57-1.57,1.21-2.12.35-.31.75-.64,1.08-1.11.94-1.32,1.71-2.14,2.72-2.14h.09c1.17.06,2.47,1.08,3.23,2.56.28.54.67.92,1.02,1.27.59.59,1.05,1.04,1.01,2.05-.09,1.92-.59,3.82-.95,5.09-.35,1.21-3.25,5.71-4.13,7.05l-.15.23v-.03ZM99.88,88.16c-.85,0-1.55.76-2.43,1.98-.37.51-.78.86-1.14,1.19-.63.54-1.04.89-1.1,1.87-.07,1.59.31,3.75.48,4.77l.06.35c.15.89,2.27,4.26,4.24,7.08,1.76-2.71,3.67-5.82,3.94-6.73.35-1.26.85-3.13.94-5.02.04-.83-.32-1.2-.89-1.76-.38-.38-.79-.79-1.1-1.38-.72-1.36-1.9-2.31-2.94-2.36h-.07.01Z" style="fill: #f6cfc5; stroke-width: 0px;"/>
      </g>
    </g>
  </g>
  <g>
    <path d="M.02,175.84c0-1.84,3.44-.99,4.18-3.44l7.58-25.49c.15-.54.4-1.39.4-2.19,0-1.55-2.4-.99-2.4-2.4,0-.64.6-1.05,1.24-1.05,1.1,0,2.49.15,4.1.15s3.04-.15,4.1-.15c.64,0,1.05.35,1.05.85,0,1.9-3.09.8-3.09,3.34,0,.8.35,1.9.8,3.44l5.63,19.11,10.08-19.11c1.29-2.44,1.65-3.29,1.65-4.1,0-1.84-2.44-1.1-2.44-2.55,0-.64.54-.99,1.2-.99,1.1,0,2.55.15,4.1.15s3.29-.15,4.35-.15c.6,0,.99.31.99.8,0,1.95-3.34.5-3.34,3.64v1.2l.31,25.49c.04,2.24,3.19,1.59,3.19,3.19,0,.8-.75,1.1-1.49,1.1-.6,0-1.59-.15-3.6-.15-1.74,0-3.15.15-4.35.15-.8,0-1.16-.31-1.16-.85,0-1.84,3.54-.75,3.54-3.5v-1.45l-.1-22.3-12.73,24.04c-.41.75-.89.95-1.49.95-.5,0-1.05-.25-1.24-.95l-7.08-23.99-6.63,22.74c-.25.85-.4,1.45-.4,1.74,0,1.35,2.75,1.2,2.75,2.44,0,.7-.54,1.1-1.45,1.1s-2.14-.15-3.64-.15-2.65.15-3.6.15c-.44,0-.99-.25-.99-.85H.05l-.03.04Z" style="fill: #f6cfc5; stroke-width: 0px;"/>
    <path d="M47.52,166.42c0-8.38,6.44-14.76,13.07-14.76,3.29,0,5.3,1.59,6.54,1.59s2.75-1.49,3.6-1.49c.54,0,.85.45.75,1.1l-2.44,17.31c-.1.7-.15,1.45-.15,1.74,0,1.05.5,1.7,1.29,1.7.89,0,1.35-.64,2-.64.44,0,.75.35.75.95,0,1.55-2.19,3.09-4.29,3.09-1.74,0-3.25-1.1-3.25-3.34,0-.25,0-.45.04-.85-2,2.55-5.14,4.39-8.62,4.39-5.19,0-9.28-4.14-9.28-10.77h-.01ZM58.28,174.39c3.15,0,6.99-2.4,7.77-7.64.41-2.65.64-4.74.64-6.17,0-4.49-2.94-6.69-6.17-6.69-4.78,0-9.23,4.95-9.23,11.57,0,5.59,3.25,8.92,6.99,8.92h0Z" style="fill: #f6cfc5; stroke-width: 0px;"/>
    <path d="M94.04,172.94c0-1.24.4-7.87.4-10.77,0-5.43-1.29-7.29-3.94-7.29-2.88,0-6.63,2.34-7.68,8.28v-.04c-.6,4.18-1.16,8.28-1.59,12.32-.15,1.16-.95,1.35-2.55,1.35-.64,0-1.2-.15-1.2-.89,0-1.05,2.59-15.51,2.59-18.01,0-2-3.44-.85-3.44-2.55,0-.7.7-.99,3.44-2.24,2.03-.95,2.79-1.16,3.25-1.16.5,0,.89.5.89.99,0,.4-.04.75-.1,1.1-.1.89-.25,1.8-.41,2.69,1.95-2.94,4.84-4.99,8.08-4.99,2.85,0,6.23,1.59,6.23,7.87,0,2.3-.44,9.63-.44,11.57,0,2.09.5,2.49,1.39,2.49,1.1,0,1.59-.75,2.3-.75.41,0,.85.31.85.89,0,1.35-2.24,3.04-4.49,3.04s-3.6-1.45-3.6-3.94h.03Z" style="fill: #f6cfc5; stroke-width: 0px;"/>
    <path d="M104.61,166.36c0-8.33,6.54-14.72,13.17-14.72,3.64,0,6.23,1.59,7.74,3.6l1.16-8.28c.1-.64.2-1.35.2-1.8,0-2-3.79-.89-3.79-2.59,0-.7.75-.99,3.64-2.24,2.14-.95,2.79-1.16,3.34-1.16s.95.5.95.99c0,.4-.04.7-.1,1.1l-4.04,28.84c-.1.75-.15,1.45-.15,1.9,0,.95.5,1.59,1.29,1.59.89,0,1.45-.64,2-.64.5,0,.8.35.8.95,0,1.55-2.19,3.09-4.35,3.09-1.74,0-3.29-1.1-3.29-3.5,0-.2,0-.5.04-.75-2.09,2.65-5.34,4.45-9.17,4.45-5.3,0-9.44-4.14-9.44-10.83h-.01ZM115.54,174.39c3.39,0,7.64-2.44,8.38-7.83.31-2.09.6-3.79.6-4.74,0-4.1-2.09-7.93-6.73-7.93-4.89,0-9.38,4.95-9.38,11.57,0,5.63,3.34,8.92,7.13,8.92h0Z" style="fill: #f6cfc5; stroke-width: 0px;"/>
    <path d="M135.84,170.11c0-.35.1-1.49.31-2.85l1.05-7.58c.1-.7.2-1.45.2-1.8,0-2-3.34-.85-3.34-2.55,0-.6,0-.64,3.44-2.24,2.03-.95,2.55-1.16,3.15-1.16.5,0,.89.5.89.99,0,.35-.04.75-.1,1.1l-1.84,13.17c-.1.75-.25,1.45-.25,2.4,0,2.79,1.55,4.64,4.68,4.64,3.6,0,7.43-2.4,8.43-7.23l1.05-7.33c.1-.7.15-1.39.15-1.8,0-2-3.34-.85-3.34-2.55,0-.75.75-.99,3.44-2.24,2.14-.99,2.69-1.16,3.15-1.16.5,0,.89.44.89.99,0,.44,0,.75-.04,1.1l-2.24,16.11c-.1.7-.15,1.55-.15,1.84,0,.95.54,1.59,1.35,1.59s1.45-.64,2-.64c.44,0,.75.35.75.95,0,1.55-2.3,3.09-4.35,3.09-1.7,0-3.25-1.1-3.25-3.44,0-.31,0-.6.04-.95-1.9,2.44-5.09,4.58-8.92,4.58-4.35,0-7.13-2.75-7.13-7.08h0l-.03.03Z" style="fill: #f6cfc5; stroke-width: 0px;"/>
    <path d="M163.64,173.5c0-.5.1-1.39.2-2.09l3.44-24.43c.1-.64.2-1.35.2-1.8,0-2-3.39-.85-3.39-2.55,0-.7.6-1.1,3.34-2.3,2.03-.89,2.69-1.16,3.25-1.16s.95.5.95.99c0,.4-.04.7-.1,1.1l-4.04,28.74c-.1.64-.2,1.55-.2,1.95,0,.99.35,1.65,1.35,1.65.89,0,1.45-.64,2-.64.5,0,.8.35.8.95,0,1.55-2.19,3.09-4.45,3.09-1.84,0-3.34-1.2-3.34-3.5h-.01Z" style="fill: #f6cfc5; stroke-width: 0px;"/>
    <path d="M174.59,166.42c0-8.38,6.44-14.76,13.07-14.76,3.29,0,5.3,1.59,6.54,1.59s2.75-1.49,3.6-1.49c.54,0,.85.45.75,1.1l-2.44,17.31c-.1.7-.15,1.45-.15,1.74,0,1.05.5,1.7,1.29,1.7.89,0,1.35-.64,2-.64.44,0,.75.35.75.95,0,1.55-2.19,3.09-4.29,3.09-1.74,0-3.25-1.1-3.25-3.34,0-.25,0-.45.04-.85-2,2.55-5.14,4.39-8.62,4.39-5.19,0-9.28-4.14-9.28-10.77h-.01ZM185.35,174.39c3.15,0,6.99-2.4,7.77-7.64.41-2.65.64-4.74.64-6.17,0-4.49-2.94-6.69-6.17-6.69-4.78,0-9.23,4.95-9.23,11.57,0,5.59,3.25,8.92,6.99,8.92h0Z" style="fill: #f6cfc5; stroke-width: 0px;"/>
  </g>
  <path d="M75.78,22.36c-.63,0-1.19-.44-1.3-1.08-.28-1.46-2.46-14.4,3.03-17.51,8.11-4.59,36.59-5.4,44.64-.09,5.02,3.34,4.02,15.99,3.89,17.41-.07.73-.72,1.27-1.43,1.2-.73-.06-1.26-.7-1.2-1.43.44-4.81.07-13.12-2.72-14.97-6.61-4.39-34-4.27-41.87.18-2.91,1.65-2.62,9.91-1.73,14.72.13.72-.34,1.4-1.05,1.54-.09,0-.16.01-.25.01h0v.03Z" style="fill: #f6cfc5; stroke-width: 0px;"/>
  <path d="M48.83,108c-.63,0-1.19-.44-1.3-1.08-.22-1.19-5.24-29.26,5.68-35.42,9.7-5.49,30.53-7.59,46.79-7.74,21.38-.18,38.55,2.62,45.93,7.52,10.05,6.67,7.68,34.25,7.58,35.42-.07.73-.7,1.27-1.43,1.2-.73-.06-1.26-.7-1.2-1.43.67-7.53.85-28.15-6.41-32.98-6.86-4.55-23.88-7.26-44.45-7.08-20.02.18-37.88,3.09-45.5,7.39-7.7,4.35-5.76,25.05-4.37,32.64.13.72-.34,1.4-1.05,1.54-.09,0-.16.01-.25.01h0Z" style="fill: #f6cfc5; stroke-width: 0px;"/>
  <path d="M64.75,58.73c-.63,0-1.19-.44-1.3-1.08-.38-2.09-3.53-20.53,4.11-24.84,11.69-6.61,52.74-7.81,64.32-.13,7.01,4.65,5.59,22.74,5.4,24.78-.07.73-.7,1.27-1.43,1.2-.73-.06-1.26-.7-1.2-1.43.47-5.14.6-19.14-4.23-22.34-9.73-6.45-49.99-6.31-61.55.23-5.09,2.88-3.76,16.9-2.82,22.06.13.72-.34,1.4-1.05,1.54-.09,0-.16.01-.25.01h.01Z" style="fill: #f6cfc5; stroke-width: 0px;"/>
  <path d="M183.53,72.05c-2.03,4.52-5.52,8.59-4.17,14.12.57,2.38.97,4.78,2.85,6.61,1.98,1.92.72,4.17.18,6.07-1.29,4.49-3.19,8.78-5.98,12.58-.31.42-.73.78-1.19,1.26-.88-1.8-1.71-3.29-.37-5.24,1.71-2.44,1.67-5.14.53-7.94-.98-2.43-1.08-5.14-2.21-7.55-.31-.64-.44-1.39-1.02-1.83-.72-.12-.85.4-1.02.82-1.33,3.12-2.88,6.14-4.32,9.22-1.8,3.85-1.26,8.13,4.36,9.89,2.82.88,3.44,3.38,1.32,5.46-5.14,5.06-10.7,9.54-17.85,11.46-1.21.32-2.43.63-3.75.76,2.9-2.71,7.23-3.8,8.69-8,1.35-3.86.69-7.84,1.32-11.72-.83-.16-.99.18-1.16.51-1.58,3.06-3.94,5.3-6.99,6.83-3.86,1.95-4.77,5.91-2.27,9.51.16.23.25.51.42.86-2.91,3.92-7.74,2.38-11.54,4.18,1.08.44,2.14.32,3.1.2,5.11-.63,10.29-.78,15.11-2.82,3.09-1.32,6.16-2.66,9.23-4.01,2.44-1.07,3.67-.79,5.09,1.36,1.16,1.77,2.9,1.77,4.59,1.45,2.17-.4,4.21-1.42,5.59-3.06,2.06-2.47,4.23-4.95,5.55-7.99.16-.38.41-.7.03-1.14-.86-.15-1.33.6-1.96.97-3.38,1.9-7.11,2.24-10.83,2.65-1.57.18-2.56.83-3.29,2.28-1.07,2.14-1.17,2.06-4.29,2.06,1.52-1.14,2.82-2.08,4.08-3.09,3.09-2.46,5.46-5.56,7.74-8.72,1.49-2.08,3.48-3.6,5.62-4.95.47-.29.97-.38,1.46-.13,4.56,2.22,9.88-1.43,11.25-5.63.82-2.53,1.71-5.03,2.56-7.56v-.88c-.47.19-.97.32-1.39.59-3.34,2-6.54,4.24-10.08,5.91-1.52.72-3.48,1.65-3.45,3.63.04,2.71-2.24,3.04-3.64,4.33.26-.88.64-1.68,1.01-2.49,1.76-4.02,2.49-8.34,4.43-12.41,3.12-6.47-.91-12.45-3.1-18.44h-.25Z" style="fill: #f6cfc5; stroke-width: 0px;"/>
  <path d="M16.57,72.05c2.03,4.52,5.52,8.59,4.17,14.12-.57,2.38-.97,4.78-2.85,6.61-1.98,1.92-.72,4.17-.18,6.07,1.29,4.49,3.19,8.78,5.98,12.58.31.42.73.78,1.19,1.26.88-1.8,1.71-3.29.37-5.24-1.71-2.44-1.67-5.14-.53-7.94.98-2.43,1.08-5.14,2.21-7.55.31-.64.44-1.39,1.02-1.83.72-.12.85.4,1.02.82,1.33,3.12,2.88,6.14,4.32,9.22,1.8,3.85,1.26,8.13-4.36,9.89-2.82.88-3.44,3.38-1.32,5.46,5.14,5.06,10.7,9.54,17.85,11.46,1.21.32,2.43.63,3.75.76-2.9-2.71-7.23-3.8-8.69-8-1.35-3.86-.69-7.84-1.32-11.72.83-.16.99.18,1.16.51,1.58,3.06,3.94,5.3,6.99,6.83,3.86,1.95,4.77,5.91,2.27,9.51-.16.23-.25.51-.42.86,2.91,3.92,7.74,2.38,11.54,4.18-1.08.44-2.14.32-3.1.2-5.11-.63-10.29-.78-15.11-2.82-3.09-1.32-6.16-2.66-9.23-4.01-2.44-1.07-3.67-.79-5.09,1.36-1.16,1.77-2.9,1.77-4.59,1.45-2.17-.4-4.21-1.42-5.59-3.06-2.06-2.47-4.23-4.95-5.55-7.99-.16-.38-.41-.7-.03-1.14.86-.15,1.33.6,1.96.97,3.38,1.9,7.11,2.24,10.83,2.65,1.57.18,2.56.83,3.29,2.28,1.07,2.14,1.17,2.06,4.29,2.06-1.52-1.14-2.82-2.08-4.08-3.09-3.09-2.46-5.46-5.56-7.74-8.72-1.49-2.08-3.48-3.6-5.62-4.95-.47-.29-.97-.38-1.46-.13-4.56,2.22-9.88-1.43-11.25-5.63-.82-2.53-1.71-5.03-2.56-7.56v-.88c.47.19.97.32,1.39.59,3.34,2,6.54,4.24,10.08,5.91,1.52.72,3.48,1.65,3.45,3.63-.04,2.71,2.24,3.04,3.64,4.33-.26-.88-.64-1.68-1.01-2.49-1.76-4.02-2.49-8.34-4.43-12.41-3.12-6.47.91-12.45,3.1-18.44h.25Z" style="fill: #f6cfc5; stroke-width: 0px;"/>
</svg>